<svg width="142" height="19" viewBox="0 0 142 19" fill="none" xmlns="http://www.w3.org/2000/svg">
<g clip-path="url(#clip0_11_896)">
<path d="M23.9572 18.965L26.5924 12.8205L23.3838 9.70667L18.7755 13.1069L23.9572 18.965Z" fill="white"/>
<path d="M14.9103 8.76549L18.7741 13.1064L28.7217 5.76598L24.8981 1.08038L14.9103 8.76549Z" fill="#CFCFCF"/>
<path d="M2.11708 0.0185547L0 5.76685H28.7211L24.0249 0.0185547H2.11708Z" fill="white"/>
<path d="M10.7949 13.1066H18.7739L23.9557 18.9647H6.80847L10.7949 13.1066Z" fill="#CFCFCF"/>
<path d="M0.30777 18.9663H6.80898L11.337 7.29999H4.57222L0.30777 18.9663Z" fill="#CFCFCF"/>
<path d="M47.6737 12.6564C46.9321 15.4245 45.0108 16.2371 42.3786 16.2371H32.7332L36.3481 2.7467H45.9874C49.2204 2.7467 49.8066 3.73425 49.2009 5.99814C48.6771 7.9561 47.7777 8.99872 44.8224 9.19207C47.8682 9.30832 48.2598 10.4501 47.6737 12.6564ZM41.9221 13.0811C42.4116 13.0811 42.8167 12.8486 43.0504 11.9797C43.2952 11.0497 42.999 10.7988 42.4386 10.7988H38.6181L38.0062 13.0811H41.9221ZM39.4282 7.79702H43.2609C43.6672 7.79702 43.9645 7.70035 44.1873 6.86821C44.4002 6.07524 44.175 5.90025 43.7687 5.90025H39.9348L39.4282 7.79702Z" fill="white"/>
<path d="M57.8293 2.7467L54.2169 16.2371H49.7846L53.3995 2.7467H57.8293Z" fill="white"/>
<path d="M65.787 2.7467L63.0434 12.9856H69.9722L69.1009 16.2371H57.7435L61.3571 2.7467H65.787Z" fill="white"/>
<path d="M78.6982 2.7467L75.9546 12.9856H82.8845L82.0132 16.2371H70.6509L74.2658 2.7467H78.6982Z" fill="white"/>
<path d="M83.6004 16.2371L86.344 5.99814H81.0208L81.8921 2.7467H96.9905L96.1192 5.99814H90.7959L88.0572 16.2371H83.6004Z" fill="white"/>
<path d="M111.157 2.74812L110.286 5.99956H102.312L101.856 7.69809H107.607L106.751 10.892H100.999L100.44 12.9821H108.414L107.542 16.2336H95.1363L98.75 2.74323L111.157 2.74812Z" fill="white"/>
<path d="M120.517 2.41833C122.046 2.41833 123.988 2.61169 125.154 2.88335L123.489 6.13479C122.824 5.94144 121.603 5.80561 120.655 5.80561C117.674 5.80561 116.517 6.07727 115.625 9.40581C114.733 12.7343 115.724 13.0831 118.704 13.0831C119.717 13.0792 120.726 12.9688 121.716 12.7539L121.617 16.0837C120.006 16.3584 118.375 16.5004 116.741 16.5083C111.497 16.5083 109.421 14.8636 110.893 9.36665C112.365 3.86968 115.272 2.41833 120.517 2.41833Z" fill="white"/>
<path d="M127.768 16.2371H123.335L126.949 2.7467H131.383L130.132 7.41155H135.378L136.627 2.7467H141.043L137.429 16.2371H133.015L134.457 10.8527H129.209L127.768 16.2371Z" fill="white"/>
</g>
<defs>
<clipPath id="clip0_11_896">
<rect width="141.041" height="19" fill="white"/>
</clipPath>
</defs>
</svg>
