<svg width="10" height="13" viewBox="0 0 10 13" fill="none" xmlns="http://www.w3.org/2000/svg">
<path fill-rule="evenodd" clip-rule="evenodd" d="M3.10416 3.43749C3.10416 2.39045 3.95295 1.54166 4.99999 1.54166C6.04703 1.54166 6.89583 2.39045 6.89583 3.43749V4.16666H3.10416V3.43749ZM2.22916 4.20761V3.43749C2.22916 1.9072 3.46971 0.666656 4.99999 0.666656C6.53028 0.666656 7.77083 1.9072 7.77083 3.43749V4.20761C8.85037 4.41239 9.66666 5.36086 9.66666 6.49999V9.99999C9.66666 11.2887 8.62199 12.3333 7.33333 12.3333H2.66666C1.378 12.3333 0.333328 11.2887 0.333328 9.99999V6.49999C0.333328 5.36086 1.14962 4.41239 2.22916 4.20761ZM4.99999 7.22916C5.24162 7.22916 5.43749 7.42503 5.43749 7.66666V8.83332C5.43749 9.07495 5.24162 9.27082 4.99999 9.27082C4.75837 9.27082 4.56249 9.07495 4.56249 8.83332V7.66666C4.56249 7.42503 4.75837 7.22916 4.99999 7.22916Z" fill="#DFA549"/>
</svg>
