<svg width="98" height="123" viewBox="0 0 98 123" fill="none" xmlns="http://www.w3.org/2000/svg">
<path fill-rule="evenodd" clip-rule="evenodd" d="M29.2296 29.5621C29.2296 18.643 38.0813 9.79126 49.0004 9.79126C59.9195 9.79126 68.7712 18.643 68.7712 29.5621V37.1663H29.2296V29.5621ZM20.1046 37.5933V29.5621C20.1046 13.6034 33.0417 0.66626 49.0004 0.66626C64.9591 0.66626 77.8962 13.6034 77.8962 29.5621V37.5933C89.1543 39.7289 97.6671 49.6201 97.6671 61.4996V97.9996C97.6671 111.439 86.7727 122.333 73.3337 122.333H24.6671C11.2281 122.333 0.33374 111.439 0.33374 97.9996V61.4996C0.33374 49.6201 8.84648 39.7289 20.1046 37.5933ZM49.0004 69.1038C51.5202 69.1038 53.5629 71.1465 53.5629 73.6663V85.8329C53.5629 88.3527 51.5202 90.3954 49.0004 90.3954C46.4806 90.3954 44.4379 88.3527 44.4379 85.8329V73.6663C44.4379 71.1465 46.4806 69.1038 49.0004 69.1038Z" fill="url(#paint0_linear_487_153)"/>
<defs>
<linearGradient id="paint0_linear_487_153" x1="31.5003" y1="122" x2="98.0003" y2="-26.5" gradientUnits="userSpaceOnUse">
<stop stop-color="#DFA549"/>
<stop offset="1" stop-color="#DFA549" stop-opacity="0"/>
</linearGradient>
</defs>
</svg>
