<svg width="50" height="50" viewBox="0 0 50 50" fill="none" xmlns="http://www.w3.org/2000/svg">
<path d="M12.1875 16.8C12.1875 15.9509 11.4991 15.2625 10.65 15.2625C9.80087 15.2625 9.1125 15.9509 9.1125 16.8H12.1875ZM40.8875 16.8C40.8875 15.9509 40.1991 15.2625 39.35 15.2625C38.5009 15.2625 37.8125 15.9509 37.8125 16.8H40.8875ZM30.6375 22.95C30.6375 22.1009 29.9491 21.4125 29.1 21.4125C28.2509 21.4125 27.5625 22.1009 27.5625 22.95H30.6375ZM27.5625 35.25C27.5625 36.0991 28.2509 36.7875 29.1 36.7875C29.9491 36.7875 30.6375 36.0991 30.6375 35.25H27.5625ZM22.4375 22.95C22.4375 22.1009 21.7491 21.4125 20.9 21.4125C20.0509 21.4125 19.3625 22.1009 19.3625 22.95H22.4375ZM19.3625 35.25C19.3625 36.0991 20.0509 36.7875 20.9 36.7875C21.7491 36.7875 22.4375 36.0991 22.4375 35.25H19.3625ZM43.45 12.1875C44.2991 12.1875 44.9875 11.4991 44.9875 10.65C44.9875 9.80086 44.2991 9.1125 43.45 9.1125V12.1875ZM6.55 9.1125C5.70087 9.1125 5.0125 9.80086 5.0125 10.65C5.0125 11.4991 5.70087 12.1875 6.55 12.1875V9.1125ZM30.3172 6.32573L29.0379 7.17858L30.3172 6.32573ZM19.6829 6.32573L18.4036 5.47288L19.6829 6.32573ZM18.85 47.0375H31.15V43.9625H18.85V47.0375ZM9.1125 16.8V37.3H12.1875V16.8H9.1125ZM40.8875 37.3V16.8H37.8125V37.3H40.8875ZM31.15 47.0375C36.5279 47.0375 40.8875 42.6779 40.8875 37.3H37.8125C37.8125 40.9796 34.8296 43.9625 31.15 43.9625V47.0375ZM18.85 43.9625C15.1704 43.9625 12.1875 40.9796 12.1875 37.3H9.1125C9.1125 42.6779 13.4721 47.0375 18.85 47.0375V43.9625ZM27.5625 22.95V35.25H30.6375V22.95H27.5625ZM19.3625 22.95L19.3625 35.25H22.4375L22.4375 22.95H19.3625ZM23.0943 6.0375H26.9057V2.9625H23.0943V6.0375ZM29.0379 7.17858L31.9207 11.5029L34.4793 9.79715L31.5964 5.47288L29.0379 7.17858ZM33.2 9.1125H16.8V12.1875H33.2V9.1125ZM18.0793 11.5029L20.9621 7.17858L18.4036 5.47288L15.5207 9.79715L18.0793 11.5029ZM33.2 12.1875H43.45V9.1125H33.2V12.1875ZM16.8 9.1125H6.55V12.1875H16.8V9.1125ZM26.9057 6.0375C27.7625 6.0375 28.5626 6.4657 29.0379 7.17858L31.5964 5.47288C30.5509 3.90453 28.7907 2.9625 26.9057 2.9625V6.0375ZM23.0943 2.9625C21.2093 2.9625 19.4491 3.90453 18.4036 5.47288L20.9621 7.17858C21.4374 6.4657 22.2375 6.0375 23.0943 6.0375V2.9625Z" fill="#DFA549"/>
</svg>
