<svg width="11" height="13" viewBox="0 0 11 13" fill="none" xmlns="http://www.w3.org/2000/svg">
<path d="M7.39583 3.58333C7.39583 4.63037 6.54704 5.47917 5.5 5.47917V6.35417C7.03029 6.35417 8.27083 5.11362 8.27083 3.58333H7.39583ZM5.5 5.47917C4.45296 5.47917 3.60417 4.63037 3.60417 3.58333H2.72917C2.72917 5.11362 3.96971 6.35417 5.5 6.35417V5.47917ZM3.60417 3.58333C3.60417 2.53629 4.45296 1.6875 5.5 1.6875V0.8125C3.96971 0.8125 2.72917 2.05304 2.72917 3.58333H3.60417ZM5.5 1.6875C6.54704 1.6875 7.39583 2.53629 7.39583 3.58333H8.27083C8.27083 2.05304 7.03029 0.8125 5.5 0.8125V1.6875ZM9.14583 9.70833C9.14583 10.0171 8.88413 10.4145 8.1917 10.7607C7.52544 11.0938 6.57439 11.3125 5.5 11.3125V12.1875C6.68078 12.1875 7.7714 11.9491 8.58301 11.5433C9.36846 11.1506 10.0208 10.5271 10.0208 9.70833H9.14583ZM5.5 11.3125C4.42561 11.3125 3.47457 11.0938 2.8083 10.7607C2.11587 10.4145 1.85417 10.0171 1.85417 9.70833H0.979168C0.979168 10.5271 1.63155 11.1506 2.41699 11.5433C3.22861 11.9491 4.31923 12.1875 5.5 12.1875V11.3125ZM1.85417 9.70833C1.85417 9.39953 2.11587 9.00218 2.8083 8.65597C3.47457 8.32284 4.42561 8.10417 5.5 8.10417V7.22917C4.31923 7.22917 3.22861 7.46754 2.41699 7.87334C1.63155 8.26607 0.979168 8.88955 0.979168 9.70833H1.85417ZM5.5 8.10417C6.57439 8.10417 7.52544 8.32284 8.1917 8.65597C8.88413 9.00218 9.14583 9.39953 9.14583 9.70833H10.0208C10.0208 8.88955 9.36846 8.26607 8.58301 7.87334C7.7714 7.46754 6.68078 7.22917 5.5 7.22917V8.10417Z" fill="white"/>
</svg>
